#!OML:ASF H:\Pregnant\Project 1\Capture day 1\Session 1\femalepreg.ASF
:FULLY-SPECIFIED
:DEGREES
1021
root 6.62076 16.0271 -22.3906 1.17317 -92.5599 18.1485
lowerback -12.126 0.734975 6.0547
upperback -6.91316 -0.0873852 3.27459
thorax -0.451898 -0.333635 -0.000846207
lowerneck -9.04632 15.7677 16.8374
upperneck 14.4749 22.271 -17.3305
head 10.0032 10.1208 -5.43623
rclavicle -3.66509e-015 -1.59028e-015
rhumerus -40.5012 -7.5306 -69.2424
rradius 28.9272
rwrist -15.2551
rhand -21.1012 -24.4343
rfingers 7.12502
rthumb 5.2766 -54.3486
lclavicle -3.66509e-015 -1.59028e-015
lhumerus -37.7421 -19.6142 93.6768
lradius 45.9022
lwrist 44.1722
lhand -19.7971 -6.7873
lfingers 7.12502
lthumb 6.53567 23.0918
rfemur -37.8967 15.8673 19.0663
rtibia 39.9585
rfoot -19.5332 -8.9461
rtoes -4.28076
lfemur -37.8636 -8.2239 -26.5245
ltibia 39.0746
lfoot -16.3152 5.56961
ltoes -15.2046
1022
root 6.61236 16.0241 -22.4188 -5.52544 -92.4088 24.9827
lowerback -12.2596 0.644999 5.83997
upperback -6.95583 -0.193901 3.2377
thorax -0.427046 -0.382025 0.0681958
lowerneck -9.16122 15.78 16.6859
upperneck 14.3945 22.2662 -17.2678
head 9.96747 10.1104 -5.38701
rclavicle 6.76644e-015 -1.11319e-014
rhumerus -41.0819 -7.37922 -69.1925
rradius 29.178
rwrist -15.0793
rhand -20.9401 -23.9918
rfingers 7.12502
rthumb 5.43215 -53.9022
lclavicle 6.76644e-015 -1.11319e-014
lhumerus -37.6253 -19.8274 93.8162
lradius 45.8715
lwrist 44.2957
lhand -19.8099 -6.73211
lfingers 7.12502
lthumb 6.52329 23.1474
rfemur -37.8846 15.7203 19.4619
rtibia 39.8217
rfoot -19.5412 -8.84838
rtoes -3.9914
lfemur -37.7604 -8.365 -26.4554
ltibia 38.6471
lfoot -16.0389 5.62883
ltoes -13.8222
1023
root 6.6037 16.0218 -22.4467 -13.1417 -92.2921 32.7334
lowerback -12.3926 0.549207 5.60846
upperback -6.99628 -0.305384 3.19492
thorax -0.399739 -0.432291 0.139641
lowerneck -9.32836 15.8004 16.5141
upperneck 14.3596 22.2641 -17.1469
head 9.94679 10.1003 -5.31114
rclavicle 7.47461e-015 -1.59028e-014
rhumerus -41.6507 -7.23828 -69.1503
rradius 29.4149
rwrist -14.9043
rhand -20.7999 -23.5877
rfingers 7.12502
rthumb 5.56755 -53.4946
lclavicle 7.47461e-015 -1.59028e-014
lhumerus -37.4992 -20.0572 93.9584
lradius 45.774
lwrist 44.3623
lhand -19.8439 -6.69839
lfingers 7.12502
lthumb 6.4905 23.1822
rfemur -37.8549 15.5783 19.8594
rtibia 39.6537
rfoot -19.54 -8.76111
rtoes -3.66121
lfemur -37.6682 -8.51347 -26.3467
ltibia 38.249
lfoot -15.6501 5.87215
ltoes -12.0435
1024
root 6.59486 16.0203 -22.4743 -21.6249 -92.2178 41.3504
lowerback -12.523 0.441581 5.3463
upperback -7.03689 -0.428702 3.16317
thorax -0.373372 -0.487514 0.238075
lowerneck -9.50251 15.8306 16.3514
upperneck 14.3516 22.2749 -17.0097
head 9.93791 10.0968 -5.22788
rclavicle 6.18096e-016 -1.27222e-014
rhumerus -42.1984 -7.12036 -69.0924
rradius 29.6273
rwrist -14.7014
rhand -20.6725 -23.2311
rfingers 7.12502
rthumb 5.69055 -53.1347
lclavicle 6.18096e-016 -1.27222e-014
lhumerus -37.3815 -20.3246 94.1325
lradius 45.6267
lwrist 44.396
lhand -19.915 -6.68796
lfingers 7.12502
lthumb 6.42187 23.1947
rfemur -37.8081 15.444 20.2594
rtibia 39.4553
rfoot -19.5143 -8.69062
rtoes -3.37204
lfemur -37.5874 -8.6305 -26.2057
ltibia 37.8744
lfoot -15.1944 6.26537
ltoes -9.95485
1025
root 6.58573 16.0198 -22.5014 -30.5935 -92.1967 50.4432
lowerback -12.6391 0.330581 5.07582
upperback -7.07666 -0.55325 3.12215
thorax -0.353078 -0.543184 0.331184
lowerneck -9.67295 15.866 16.1983
upperneck 14.3616 22.2878 -16.8368
head 9.93099 10.0977 -5.13377
rclavicle 2.35901e-015 7.15625e-015
rhumerus -42.7384 -7.0426 -69.0367
rradius 29.8167
rwrist -14.4807
rhand -20.57 -22.93
rfingers 7.12502
rthumb 5.78949 -52.8309
lclavicle 2.35901e-015 7.15625e-015
lhumerus -37.2607 -20.6106 94.3043
lradius 45.4145
lwrist 44.3882
lhand -19.9885 -6.69567
lfingers 7.12502
lthumb 6.35089 23.1891
rfemur -37.7331 15.3087 20.6642
rtibia 39.2257
rfoot -19.4639 -8.62088
rtoes -3.16857
lfemur -37.505 -8.73643 -26.0267
ltibia 37.5138
lfoot -14.7306 6.76174
ltoes -7.67259
1026
root 6.57596 16.0201 -22.5279 -39.3613 -92.2352 59.309
lowerback -12.7305 0.226311 4.79575
upperback -7.10733 -0.664532 3.0688
thorax -0.335348 -0.591565 0.418298
lowerneck -9.8504 15.8819 16.0246
upperneck 14.3669 22.2681 -16.6343
head 9.91118 10.0853 -5.03369
rclavicle 7.56314e-016 3.97569e-015
rhumerus -43.2728 -7.01019 -68.9714
rradius 29.9824
rwrist -14.2532
rhand -20.4973 -22.6766
rfingers 7.12502
rthumb 5.85974 -52.5756
lclavicle 7.56314e-016 3.97569e-015
lhumerus -37.1362 -20.9575 94.4935
lradius 45.1436
lwrist 44.3633
lhand -20.0812 -6.72458
lfingers 7.12502
lthumb 6.26147 23.1629
rfemur -37.6123 15.1773 21.0738
rtibia 38.9677
rfoot -19.3957 -8.54531
rtoes -3.01854
lfemur -37.3948 -8.80639 -25.8207
ltibia 37.1557
lfoot -14.3189 7.25423
ltoes -5.5216
1027
root 6.56582 16.0212 -22.5544 -47.5196 -92.3199 67.5386
lowerback -12.7945 0.119158 4.49192
upperback -7.12881 -0.773618 3.00421
thorax -0.321636 -0.637763 0.507269
lowerneck -10.0104 15.8785 15.8448
upperneck 14.3486 22.2169 -16.4137
head 9.87136 10.062 -4.93502
rclavicle -4.12789e-015 7.95139e-016
rhumerus -43.794 -7.01599 -68.9042
rradius 30.1201
rwrist -14.0149
rhand -20.4295 -22.4612
rfingers 7.12502
rthumb 5.92512 -52.3583
lclavicle -4.12789e-015 7.95139e-016
lhumerus -37.0071 -21.3483 94.6867
lradius 44.8161
lwrist 44.3354
lhand -20.1837 -6.75655
lfingers 7.12502
lthumb 6.16244 23.1338
rfemur -37.4475 15.0602 21.478
rtibia 38.6829
rfoot -19.3005 -8.48142
rtoes -2.94926
lfemur -37.2537 -8.84608 -25.5899
ltibia 36.7948
lfoot -13.9967 7.65704
ltoes -3.85475
1028
root 6.55523 16.0228 -22.5809 -54.7952 -92.4453 74.8543
lowerback -12.8257 0.0234849 4.17135
upperback -7.14084 -0.8619 2.92131
thorax -0.314501 -0.672754 0.589258
lowerneck -10.1773 15.8402 15.6302
upperneck 14.315 22.1112 -16.1579
head 9.80946 10.0156 -4.83143
rclavicle -9.98738e-015 1.74931e-014
rhumerus -44.3151 -7.08855 -68.8186
rradius 30.2272
rwrist -13.7617
rhand -20.3634 -22.2728
rfingers 7.12502
rthumb 5.98902 -52.1682
lclavicle -9.98738e-015 1.74931e-014
lhumerus -36.8667 -21.7954 94.8919
lradius 44.418
lwrist 44.2864
lhand -20.2907 -6.78935
lfingers 7.12502
lthumb 6.05913 23.104
rfemur -37.2382 14.9675 21.8755
rtibia 38.3789
rfoot -19.1976 -8.43438
rtoes -2.86884
lfemur -37.0722 -8.83747 -25.3394
ltibia 36.4337
lfoot -13.8235 7.89126
ltoes -2.65102
1029
root 6.54441 16.0252 -22.6077 -61.1732 -92.6002 81.2393
lowerback -12.8258 -0.0804678 3.81551
upperback -7.13757 -0.95424 2.83331
thorax -0.306864 -0.708029 0.685413
lowerneck -10.323 15.7785 15.4229
upperneck 14.2405 21.9699 -15.9092
head 9.72625 9.95575 -4.74055
rclavicle 3.63403e-016 7.95139e-015
rhumerus -44.8053 -7.17846 -68.739
rradius 30.2986
rwrist -13.5069
rhand -20.2817 -22.1104
rfingers 7.12502
rthumb 6.06786 -52.0035
lclavicle 3.63403e-016 7.95139e-015
lhumerus -36.6929 -22.2225 95.0932
lradius 43.9334
lwrist 44.1925
lhand -20.4099 -6.82332
lfingers 7.12502
lthumb 5.9441 23.0733
rfemur -36.9854 14.9145 22.261
rtibia 38.0603
rfoot -19.0824 -8.42484
rtoes -2.80284
lfemur -36.8528 -8.79421 -25.0632
ltibia 36.0856
lfoot -13.8043 7.92219
ltoes -1.85407
1030
root 6.53373 16.028 -22.6348 -66.7809 -92.7692 86.8322
lowerback -12.7982 -0.178115 3.42514
upperback -7.1262 -1.03189 2.7302
thorax -0.304368 -0.734733 0.787342
lowerneck -10.4385 15.6777 15.2167
upperneck 14.1216 21.7725 -15.6672
head 9.61522 9.87334 -4.66621
rclavicle -1.52241e-014 1.74931e-014
rhumerus -45.2845 -7.32956 -68.6399
rradius 30.3333
rwrist -13.238
rhand -20.1904 -21.966
rfingers 7.12502
rthumb 6.15602 -51.8565
lclavicle -1.52241e-014 1.74931e-014
lhumerus -36.5085 -22.709 95.3097
lradius 43.3854
lwrist 44.0911
lhand -20.5353 -6.84269
lfingers 7.12502
lthumb 5.82297 23.0573
rfemur -36.7094 14.9065 22.6217
rtibia 37.7374
rfoot -18.9625 -8.46173
rtoes -2.70622
lfemur -36.6129 -8.70477 -24.7818
ltibia 35.7643
lfoot -13.913 7.78375
ltoes -1.49778
1031
root 6.52329 16.0314 -22.6622 -71.7546 -92.9456 91.7732
lowerback -12.7423 -0.269931 3.00369
upperback -7.10913 -1.09627 2.60879
thorax -0.310265 -0.753868 0.889823
lowerneck -10.5348 15.5458 15.026
upperneck 13.9767 21.5295 -15.4302
head 9.48834 9.77253 -4.60627
rclavicle 1.91633e-014 -2.94201e-014
rhumerus -45.7554 -7.54814 -68.524
rradius 30.3328
rwrist -12.9523
rhand -20.0883 -21.836
rfingers 7.12502
rthumb 6.25455 -51.7236
lclavicle 1.91633e-014 -2.94201e-014
lhumerus -36.3083 -23.2331 95.5354
lradius 42.7631
lwrist 43.9723
lhand -20.656 -6.85974
lfingers 7.12502
lthumb 5.70651 23.0434
rfemur -36.4192 14.9496 22.9532
rtibia 37.4186
rfoot -18.8387 -8.55826
rtoes -2.59547
lfemur -36.3684 -8.57521 -24.504
ltibia 35.4816
lfoot -14.0759 7.53399
ltoes -1.63186
1032
root 6.51343 16.0352 -22.6897 -76.2966 -93.1185 96.2742
lowerback -12.6616 -0.394952 2.50745
upperback -7.09073 -1.19629 2.50519
thorax -0.325793 -0.788511 1.04914
lowerneck -10.5656 15.4249 14.9244
upperneck 13.8056 21.307 -15.2583
head 9.36465 9.6844 -4.57988
rclavicle -1.57319e-014 2.70347e-014
rhumerus -46.1726 -7.7402 -68.4093
rradius 30.2875
rwrist -12.6496
rhand -19.9818 -21.7245
rfingers 7.12502
rthumb 6.35737 -51.6091
lclavicle -1.57319e-014 2.70347e-014
lhumerus -36.1031 -23.7219 95.7612
lradius 42.085
lwrist 43.8482
lhand -20.7682 -6.88751
lfingers 7.12502
lthumb 5.59815 23.0185
rfemur -36.1345 15.0463 23.2437
rtibia 37.1183
rfoot -18.7114 -8.71688
rtoes -2.43941
lfemur -36.1411 -8.39114 -24.2508
ltibia 35.2388
lfoot -14.241 7.18612
ltoes -2.11413
1033
root 6.50416 16.0395 -22.7173 -80.543 -93.2805 100.483
lowerback -12.561 -0.542885 1.96392
upperback -7.07999 -1.32132 2.37253
thorax -0.358672 -0.834988 1.20268
lowerneck -10.5391 15.3304 14.9869
upperneck 13.6431 21.1121 -15.1227
head 9.26242 9.6169 -4.58514
rclavicle -9.56845e-015 1.59028e-014
rhumerus -46.5691 -7.95216 -68.3416
rradius 30.2027
rwrist -12.3333
rhand -19.8757 -21.637
rfingers 7.12502
rthumb 6.45979 -51.5185
lclavicle -9.56845e-015 1.59028e-014
lhumerus -35.9238 -24.2398 95.9278
lradius 41.3776
lwrist 43.7576
lhand -20.8635 -6.9116
lfingers 7.12502
lthumb 5.50616 22.9969
rfemur -35.8751 15.1819 23.4878
rtibia 36.8489
rfoot -18.5873 -8.92153
rtoes -2.22682
lfemur -35.951 -8.17552 -24.0331
ltibia 35.0309
lfoot -14.3791 6.7772
ltoes -2.67112
1034
root 6.49516 16.0444 -22.7448 -84.4491 -93.4135 104.358
lowerback -12.4477 -0.708702 1.36486
upperback -7.07471 -1.46481 2.19999
thorax -0.402356 -0.889816 1.34465
lowerneck -10.5271 15.2563 15.1618
upperneck 13.5255 20.9301 -14.9715
head 9.19109 9.55981 -4.59592
rclavicle -5.68594e-015 1.07344e-014
rhumerus -46.9613 -8.23378 -68.3102
rradius 30.0855
rwrist -11.9539
rhand -19.7793 -21.5497
rfingers 7.12502
rthumb 6.55285 -51.4283
lclavicle -5.68594e-015 1.07344e-014
lhumerus -35.7636 -24.7778 96.0256
lradius 40.6386
lwrist 43.6804
lhand -20.9164 -6.92769
lfingers 7.12502
lthumb 5.45502 22.9821
rfemur -35.6516 15.3401 23.6722
rtibia 36.6227
rfoot -18.4652 -9.15973
rtoes -2.03719
lfemur -35.8008 -7.9428 -23.8673
ltibia 34.8476
lfoot -14.4634 6.31319
ltoes -3.18928
